<!-- icon666.com - MILLIONS vector ICONS FREE --><svg version="1.1" id="Capa_1" xmlns="http://www.w3.org/2000/svg" xmlns:xlink="http://www.w3.org/1999/xlink" x="0px" y="0px" viewBox="0 0 512.001 512.001" style="enable-background:new 0 0 512.001 512.001;" xml:space="preserve"><path style="fill:#D1883F;" d="M149.905,68.839c0,0-0.714-43.842,27.233-45.946s25.864,38.97,25.864,38.97 S186.463,89.969,149.905,68.839z"></path><path style="fill:#EAAA63;" d="M238.77,76.972c-5.609,10.46-13.628,20.71-22.835,27.697c-34.232,26.003-67.791,1.842-67.791,1.842 s-15.343-13.575-26.192-28.465c-11.197-15.374-17.616-32.148,2.589-36.831c24.561-5.693,20.815,45.566,82.134,6.03 C251.503,18.347,254.029,48.496,238.77,76.972z"></path><path style="fill:#D1883F;" d="M121.952,78.045c2.989-1.242,6.261-1.926,9.692-1.926h100.581c2.263,0,4.462,0.295,6.546,0.852 c-5.609,10.46-13.628,20.71-22.835,27.697c-34.232,26.003-67.791,1.842-67.791,1.842S132.801,92.935,121.952,78.045z"></path><path style="fill:#EAAA63;" d="M356.367,298.199c0,96.33-78.103,174.423-174.433,174.423c-2.662,0-5.304-0.063-7.934-0.179 c-11.86-0.526-23.414-2.241-34.537-5.03c-51.332-12.838-93.657-48.428-115.629-95.435C13.351,349.573,7.5,324.57,7.5,298.199 c0-70.937,42.346-131.982,103.138-159.248c21.762-9.755,45.892-15.185,71.295-15.185s49.533,5.43,71.295,15.185 c25.403,11.386,47.586,28.676,64.792,50.122C342.013,218.959,356.367,256.895,356.367,298.199z"></path><g><path style="fill:#D1883F;" d="M139.461,422.468c0,3.862-0.831,7.524-2.315,10.839c1.484,3.315,2.315,6.987,2.315,10.849v23.256 c-51.332-12.838-93.657-48.428-115.629-95.435h88.995c14.691,0,26.634,11.944,26.634,26.634V422.468z"></path><path style="fill:#D1883F;" d="M356.367,298.199c0,96.33-78.103,174.423-174.433,174.423c-2.662,0-5.304-0.063-7.934-0.179 c7.24-86.596,69.327-117.418,72.126-118.765l0,0c2.134-1.018,4.468-1.547,6.832-1.547h65.062V189.073 C342.013,218.959,356.367,256.895,356.367,298.199z"></path><path style="fill:#D1883F;" d="M253.229,138.953c-4.588,6.682-12.291,11.081-21.004,11.081H131.644 c-8.713,0-16.416-4.399-21.004-11.081c21.762-9.755,45.892-15.185,71.295-15.185S231.467,129.198,253.229,138.953z"></path><path style="fill:#D1883F;" d="M356.367,298.202c0,96.33-78.103,174.423-174.433,174.423c-3.567,0-7.103-0.105-10.618-0.326 c91.384-5.483,163.805-81.334,163.805-174.097c0-92.773-72.421-168.624-163.805-174.107c3.515-0.221,7.051-0.326,10.618-0.326 C278.264,123.768,356.367,201.861,356.367,298.202z"></path></g><path style="fill:#59D9A4;" d="M232.224,134.252H131.645c-5.354,0-9.694-4.34-9.694-9.694v-22.963c0-5.354,4.34-9.694,9.694-9.694 h100.579c5.354,0,9.694,4.34,9.694,9.694v22.963C241.918,129.911,237.578,134.252,232.224,134.252z"></path><path style="fill:#D1883F;" d="M179.993,375.114c-47.774,0-86.642-38.867-86.642-86.642s38.867-86.642,86.642-86.642 s86.642,38.867,86.642,86.642S227.767,375.114,179.993,375.114z"></path><circle style="fill:#97FFCD;" cx="179.99" cy="288.471" r="70.857"></circle><path style="fill:#FF9900;" d="M112.832,478.857H20.995c-5.988,0-10.842-4.854-10.842-10.842v-23.863 c0-5.988,4.854-10.842,10.842-10.842h91.836c5.988,0,10.842,4.854,10.842,10.842v23.863 C123.674,474.003,118.82,478.857,112.832,478.857z"></path><path style="fill:#FFCC66;" d="M112.832,433.311H20.995c-5.988,0-10.842-4.854-10.842-10.842v-23.863 c0-5.988,4.854-10.842,10.842-10.842h91.836c5.988,0,10.842,4.854,10.842,10.842v23.863 C123.674,428.457,118.82,433.311,112.832,433.311z"></path><path style="fill:#D0DCE7;" d="M504.5,106.873v312.075c0,7.879-2.684,15.129-7.18,20.902c-6.231,7.966-15.923,13.092-26.814,13.092 H333.804v-346.07L504.5,106.873L504.5,106.873z"></path><rect x="333.8" y="106.871" style="fill:#91ADC1;" width="13.523" height="346.07"></rect><rect x="333.81" y="164.971" style="fill:#4D5DB1;" width="170.69" height="75.38"></rect><rect x="333.81" y="164.971" style="fill:#344693;" width="13.521" height="75.38"></rect><path style="fill:#91ADC1;" d="M497.319,439.851c-6.231,7.966-15.923,13.092-26.814,13.092H333.804v-97.978h83.419 c20.548,0,37.265,16.717,37.265,37.265v36.393c0,6.274,5.1,11.374,11.375,11.374L497.319,439.851z"></path><path style="fill:#7C91A5;" d="M465.864,452.943c-13.432,0-24.32-10.889-24.32-24.32v-36.391c0-13.432-10.889-24.32-24.32-24.32 h-11.351h-72.066v85.031H465.864z"></path><path style="fill:#D0DCE7;" d="M353.641,489.189c0-90.617,63.863-121.278,63.863-121.278H252.961c0,0-63.863,30.661-63.863,121.278 H353.641z"></path><path style="fill:#91ADC1;" d="M274.169,367.91c0,0-72.209,30.663-72.209,121.28h-12.859c0-90.617,63.863-121.28,63.863-121.28 H274.169z"></path><path d="M179.992,366.829c43.206,0,78.357-35.151,78.357-78.357s-35.151-78.356-78.357-78.356s-78.356,35.15-78.356,78.356 S136.786,366.829,179.992,366.829z M179.992,225.116c34.936,0,63.357,28.421,63.357,63.356s-28.422,63.357-63.357,63.357 s-63.356-28.422-63.356-63.357S145.058,225.116,179.992,225.116z"></path><path d="M178.877,295.907c0.309,0.039,0.622,0.065,0.941,0.065c3.021,0,5.479,2.458,5.479,5.479s-2.458,5.479-5.479,5.479 c-1.654,0-3.204-0.737-4.252-2.022c-2.617-3.21-7.342-3.691-10.552-1.074c-3.21,2.618-3.691,7.342-1.073,10.552 c2.34,2.871,5.357,5.001,8.726,6.255v7.294c0,4.142,3.357,7.5,7.5,7.5s7.5-3.358,7.5-7.5v-7.575 c7.407-3.086,12.63-10.397,12.63-18.909c0-10.856-8.498-19.742-19.188-20.414c-0.309-0.039-0.622-0.065-0.942-0.065 c-3.021,0-5.479-2.458-5.479-5.479s2.458-5.479,5.479-5.479c1.654,0,3.204,0.737,4.252,2.022c2.617,3.21,7.342,3.69,10.552,1.074 c3.21-2.618,3.691-7.342,1.073-10.552c-2.259-2.772-5.149-4.854-8.377-6.123v-7.426c0-4.142-3.357-7.5-7.5-7.5s-7.5,3.358-7.5,7.5 v7.447c-7.589,3.001-12.979,10.394-12.979,19.037C159.688,286.351,168.187,295.236,178.877,295.907z"></path><path d="M504.5,99.373h-88.334c-4.143,0-7.5,3.358-7.5,7.5s3.357,7.5,7.5,7.5H497v43.097H341.31v-43.098h44.521 c4.143,0,7.5-3.358,7.5-7.5s-3.357-7.5-7.5-7.5H333.81c-4.143,0-7.5,3.358-7.5,7.5v58.021c0,0.026-0.004,0.051-0.004,0.077 s0.004,0.051,0.004,0.077v22.42c-20.025-26.131-46.74-46.356-77.486-58.5c0.375-1.41,0.595-2.884,0.595-4.411v-22.963 c0-6.061-3.16-11.389-7.912-14.451c12.265-19.215,18.166-42.055,8.089-53.276c-8.134-9.058-22.356-7.646-42.306,4.177 c-5.118-15.608-15.943-23.744-30.715-22.631c-14.103,1.067-24.449,10.384-29.926,26.591c-5.708-5.397-12.893-10.625-23.802-8.099 c-12.075,2.8-16.47,9.4-18.03,14.443c-3.143,10.162,2.013,23.351,15.727,40.138c-3.721,3.156-6.092,7.857-6.092,13.107v22.963 c0,1.526,0.219,2.999,0.594,4.409c-20.583,8.117-39.34,19.849-55.866,34.961c-3.057,2.795-3.269,7.54-0.474,10.596 c1.48,1.618,3.505,2.438,5.537,2.438c1.808,0,3.621-0.649,5.06-1.965c16.65-15.226,35.767-26.702,56.851-34.16 c1.727,0.584,3.57,0.915,5.492,0.915h100.579c1.929,0,3.779-0.334,5.512-0.923c37.297,13.215,68.603,39.206,88.574,73.554v25.893 c0,0.026-0.004,0.051-0.004,0.077s0.004,0.051,0.004,0.077v119.981h-73.349c-1.124,0-2.233,0.252-3.246,0.739 c-0.711,0.342-17.615,8.594-34.427,28.593c-12.696,15.103-27.395,39.641-32.129,75.375c-0.41,0.003-0.821,0.014-1.23,0.014 c-17.343,0-34.404-2.648-50.756-7.862V444.15c0-4.058-1.341-7.8-3.581-10.842c2.24-3.041,3.581-6.783,3.581-10.842v-23.863 c0-10.114-8.229-18.342-18.342-18.342H36.553C22.459,355.345,15,327.016,15,298.202c0-37.196,11.979-72.399,34.641-101.802 c2.528-3.281,1.919-7.99-1.362-10.519c-3.277-2.528-7.989-1.918-10.519,1.362C13.058,219.294,0,257.663,0,298.202 c0,28.615,6.756,56.796,19.582,82.134c-9.453,0.726-16.928,8.634-16.928,18.27v23.863c0,4.058,1.341,7.8,3.581,10.842 c-2.24,3.041-3.581,6.783-3.581,10.842v23.863c0,10.114,8.229,18.342,18.342,18.342h91.837c8.47,0,15.598-5.779,17.697-13.596 c16.591,4.879,33.808,7.358,51.282,7.369c-0.14,2.953-0.213,5.972-0.213,9.059c0,4.142,3.357,7.5,7.5,7.5h164.543 c4.143,0,7.5-3.358,7.5-7.5c0-10.024,0.799-19.612,2.39-28.748h102.295c0.013,0,0.026,0.001,0.038,0.001 c0.007,0,0.013-0.001,0.019-0.001h4.617c22.883,0,41.5-18.617,41.5-41.5v-15.44c0-4.142-3.357-7.5-7.5-7.5s-7.5,3.358-7.5,7.5v15.44 c0,14.612-11.888,26.5-26.5,26.5h-4.656c-9.265-0.011-16.8-7.551-16.8-16.819v-36.391c0-17.413-14.06-31.596-31.423-31.81 c-0.04-0.001-0.078-0.01-0.117-0.01h-0.28h-11.352H341.31V247.853H497v125.316c0,4.142,3.357,7.5,7.5,7.5s7.5-3.358,7.5-7.5V106.873 C512,102.731,508.643,99.373,504.5,99.373z M233.365,126.422c-0.334,0.205-0.722,0.33-1.142,0.33H131.645 c-1.21,0-2.194-0.984-2.194-2.194v-22.963c0-1.21,0.984-2.194,2.194-2.194h97.197c0.008,0,0.016,0.002,0.024,0.002 c0.012,0,0.024-0.002,0.036-0.002h3.323c1.21,0,2.194,0.984,2.194,2.194v22.963c0,0.746-0.376,1.405-0.947,1.801 C233.436,126.38,233.4,126.4,233.365,126.422z M177.702,30.371c3.214-0.242,12.457-0.923,16.306,15.765 c-17.934,10.068-27.719,10.098-34.771,6.493C161.592,42.062,166.695,31.204,177.702,30.371z M119.146,52.782 c0.722-2.333,4.253-3.606,7.087-4.263c4.271-0.992,6.708,0.966,12.594,6.812c2.223,2.208,4.664,4.623,7.515,6.842 c0.03,0.023,0.061,0.047,0.091,0.07c4.436,3.436,9.871,6.384,17.079,7.307c11.712,1.502,25.339-2.687,42.563-13.102 c0.071-0.041,0.142-0.083,0.212-0.127c1.459-0.885,2.935-1.799,4.448-2.774c18.9-12.18,26.405-11.1,27.702-9.657 c1.519,1.69,2.016,7.335-0.48,15.734c-2.423,8.156-7.01,17.021-12.765,24.776h-88.414C121.829,67.563,117.875,56.89,119.146,52.782z M17.653,444.153c0-1.843,1.499-3.342,3.342-3.342h91.837c1.843,0,3.342,1.499,3.342,3.342v4.432H17.653V444.153z M17.653,422.469 v-4.431h98.521v4.431c0,1.843-1.499,3.342-3.342,3.342H20.995C19.152,425.811,17.653,424.312,17.653,422.469z M20.995,395.265 h91.837c1.843,0,3.342,1.499,3.342,3.342v4.432H17.653v-4.432C17.653,396.764,19.152,395.265,20.995,395.265z M112.832,471.357 H20.995c-1.843,0-3.342-1.499-3.342-3.342v-4.431h98.521v4.431C116.174,469.858,114.675,471.357,112.832,471.357z M419.161,375.532 c8.364,0.965,14.883,8.081,14.883,16.7v36.391c0,6.172,1.772,11.936,4.826,16.819h-71.898c4.899-17.022,12.87-32.233,23.873-45.485 C402.795,385.562,414.914,377.944,419.161,375.532z M379.831,389.743c-10.896,12.961-23.273,32.867-29.557,60.839 c-0.171,0.517-0.292,1.056-0.347,1.616c-1.925,9.002-3.226,18.814-3.642,29.492H196.75c1.322-32.216,11.246-59.685,29.552-81.733 c12.154-14.64,24.485-22.272,28.529-24.545H333.8c0.003,0,0.006,0,0.01,0s0.006,0,0.01,0h60.038 C389.427,379.293,384.625,384.04,379.831,389.743z M341.31,232.853v-20.624c0-0.003,0-0.006,0-0.009v-39.75H497v60.383 L341.31,232.853L341.31,232.853z"></path><path d="M323.934,450.779H224.4c-4.143,0-7.5,3.358-7.5,7.5s3.357,7.5,7.5,7.5h99.534c4.143,0,7.5-3.358,7.5-7.5 S328.076,450.779,323.934,450.779z"></path><path d="M333.804,426.168h-99.535c-4.143,0-7.5,3.358-7.5,7.5s3.357,7.5,7.5,7.5h99.535c4.143,0,7.5-3.358,7.5-7.5 S337.946,426.168,333.804,426.168z"></path><path d="M244.139,401.558c-4.143,0-7.5,3.358-7.5,7.5s3.357,7.5,7.5,7.5h99.535c4.143,0,7.5-3.358,7.5-7.5s-3.357-7.5-7.5-7.5 H244.139z"></path><path d="M378.879,278.017h-15.803c-4.143,0-7.5,3.358-7.5,7.5s3.357,7.5,7.5,7.5h15.803c4.143,0,7.5-3.358,7.5-7.5 S383.021,278.017,378.879,278.017z"></path><path d="M378.879,298.692h-15.803c-4.143,0-7.5,3.358-7.5,7.5s3.357,7.5,7.5,7.5h15.803c4.143,0,7.5-3.358,7.5-7.5 S383.021,298.692,378.879,298.692z"></path><path d="M378.879,319.367h-15.803c-4.143,0-7.5,3.358-7.5,7.5s3.357,7.5,7.5,7.5h15.803c4.143,0,7.5-3.358,7.5-7.5 S383.021,319.367,378.879,319.367z"></path><path d="M479.276,278.017h-73.215c-4.143,0-7.5,3.358-7.5,7.5s3.357,7.5,7.5,7.5h73.215c4.143,0,7.5-3.358,7.5-7.5 S483.419,278.017,479.276,278.017z"></path><path d="M479.276,298.692h-73.215c-4.143,0-7.5,3.358-7.5,7.5s3.357,7.5,7.5,7.5h73.215c4.143,0,7.5-3.358,7.5-7.5 S483.419,298.692,479.276,298.692z"></path><path d="M479.276,319.367h-73.215c-4.143,0-7.5,3.358-7.5,7.5s3.357,7.5,7.5,7.5h73.215c4.143,0,7.5-3.358,7.5-7.5 S483.419,319.367,479.276,319.367z"></path><path d="M360.458,124.88c-4.143,0-7.5,3.358-7.5,7.5s3.357,7.5,7.5,7.5h10.52c4.143,0,7.5-3.358,7.5-7.5s-3.357-7.5-7.5-7.5H360.458 z"></path><path d="M484.536,139.88c4.143,0,7.5-3.358,7.5-7.5s-3.357-7.5-7.5-7.5h-48.078c-4.143,0-7.5,3.358-7.5,7.5s3.357,7.5,7.5,7.5 H484.536z"></path><path d="M482.44,211.681H357.183c-4.143,0-7.5,3.358-7.5,7.5s3.357,7.5,7.5,7.5H482.44c4.143,0,7.5-3.358,7.5-7.5 S486.583,211.681,482.44,211.681z"></path><path d="M386.875,199.38h65.873c4.143,0,7.5-3.358,7.5-7.5s-3.357-7.5-7.5-7.5h-65.873c-4.143,0-7.5,3.358-7.5,7.5 S382.732,199.38,386.875,199.38z"></path></svg>