<!-- icon666.com - MILLIONS vector ICONS FREE --><svg id="Capa_1" enable-background="new 0 0 512 512" viewBox="0 0 512 512" xmlns="http://www.w3.org/2000/svg"><path d="m256 132.043c-68.351 0-123.957 55.607-123.957 123.957s55.606 123.957 123.957 123.957 123.957-55.607 123.957-123.957-55.607-123.957-123.957-123.957z"></path><path d="m507.771 245.56-37.332-38.519 16.966-50.896c2.566-7.699-1.456-16.042-9.077-18.831l-50.379-18.43-6.797-53.208c-1.027-8.042-8.246-13.807-16.325-13.03l-53.4 5.172-29.223-44.998c-4.421-6.805-13.451-8.862-20.381-4.642l-45.823 27.901-45.823-27.9c-6.932-4.22-15.961-2.163-20.381 4.643l-29.222 44.998-53.401-5.172c-8.071-.775-15.298 4.989-16.325 13.029l-6.797 53.209-50.379 18.43c-7.621 2.788-11.644 11.132-9.077 18.831l16.966 50.896-37.333 38.517c-5.638 5.817-5.638 15.061 0 20.879l37.332 38.519-16.966 50.896c-2.566 7.699 1.456 16.042 9.077 18.831l50.379 18.43 6.797 53.208c1.027 8.042 8.252 13.804 16.325 13.03l53.4-5.172 29.223 44.998c2.868 4.416 7.676 6.832 12.593 6.832 2.661 0 5.354-.708 7.788-2.19l45.824-27.901 45.823 27.9c6.932 4.22 15.961 2.163 20.381-4.643l29.222-44.998 53.401 5.172c8.08.774 15.298-4.989 16.325-13.029l6.797-53.209 50.379-18.43c7.621-2.788 11.644-11.132 9.077-18.831l-16.966-50.896 37.332-38.518c5.638-5.816 5.638-15.06 0-20.878zm-251.771 164.397c-84.893 0-153.957-69.065-153.957-153.957s69.064-153.957 153.957-153.957 153.957 69.065 153.957 153.957-69.065 153.957-153.957 153.957z"></path></svg>